<?xml version="1.0" encoding="UTF-8" standalone="no"?>
<!-- Created with Inkscape (http://www.inkscape.org/) -->

<svg
   xmlns:dc="http://purl.org/dc/elements/1.1/"
   xmlns:cc="http://creativecommons.org/ns#"
   xmlns:rdf="http://www.w3.org/1999/02/22-rdf-syntax-ns#"
   xmlns:svg="http://www.w3.org/2000/svg"
   xmlns="http://www.w3.org/2000/svg"
   xmlns:xlink="http://www.w3.org/1999/xlink"
   xmlns:sodipodi="http://sodipodi.sourceforge.net/DTD/sodipodi-0.dtd"
   xmlns:inkscape="http://www.inkscape.org/namespaces/inkscape"
   width="210mm"
   height="297mm"
   id="svg2"
   version="1.1"
   inkscape:version="0.48.1 "
   sodipodi:docname="Plneta.svg">
  <defs
     id="defs4">
    <inkscape:path-effect
       effect="spiro"
       id="path-effect3121"
       is_visible="true" />
    <inkscape:path-effect
       effect="spiro"
       id="path-effect3117"
       is_visible="true" />
    <inkscape:path-effect
       effect="spiro"
       id="path-effect3113"
       is_visible="true" />
    <inkscape:path-effect
       effect="spiro"
       id="path-effect3109"
       is_visible="true" />
    <radialGradient
       inkscape:collect="always"
       xlink:href="#linearGradient3051-9"
       id="radialGradient3965"
       gradientUnits="userSpaceOnUse"
       gradientTransform="matrix(1,0,0,0.99667017,0,1.724943)"
       cx="374.91754"
       cy="518.02698"
       fx="374.91754"
       fy="518.02698"
       r="355.46936" />
    <linearGradient
       inkscape:collect="always"
       id="linearGradient3051-9">
      <stop
         style="stop-color:#00ff00;stop-opacity:1;"
         offset="0"
         id="stop3053-6" />
      <stop
         style="stop-color:#00ff00;stop-opacity:0;"
         offset="1"
         id="stop3055-5" />
    </linearGradient>
    <inkscape:path-effect
       effect="spiro"
       id="path-effect3986"
       is_visible="true" />
    <inkscape:path-effect
       effect="spiro"
       id="path-effect4009"
       is_visible="true" />
  </defs>
  <sodipodi:namedview
     id="base"
     pagecolor="#ffffff"
     bordercolor="#666666"
     borderopacity="1.0"
     inkscape:pageopacity="0.0"
     inkscape:pageshadow="2"
     inkscape:zoom="0.49497475"
     inkscape:cx="409.74979"
     inkscape:cy="514.71011"
     inkscape:document-units="px"
     inkscape:current-layer="g3936"
     showgrid="false"
     inkscape:window-width="1360"
     inkscape:window-height="706"
     inkscape:window-x="-8"
     inkscape:window-y="-8"
     inkscape:window-maximized="1" />
  <metadata
     id="metadata7">
    <rdf:RDF>
      <cc:Work
         rdf:about="">
        <dc:format>image/svg+xml</dc:format>
        <dc:type
           rdf:resource="http://purl.org/dc/dcmitype/StillImage" />
        <dc:title></dc:title>
      </cc:Work>
    </rdf:RDF>
  </metadata>
  <g
     inkscape:label="Capa 1"
     inkscape:groupmode="layer"
     id="layer1">
    <path
       style="fill:none;stroke:#000000;stroke-width:1px;stroke-linecap:butt;stroke-linejoin:miter;stroke-opacity:1"
       d=""
       id="path3111"
       inkscape:path-effect="#path-effect3113"
       inkscape:original-d="M 314.15744,692.74788 z"
       inkscape:connector-curvature="0" />
    <g
       id="g3936">
      <g
         id="g3927"
         transform="matrix(0.65476327,0,0,0.75087717,1384.201,724.74342)">
        <path
           inkscape:connector-curvature="0"
           id="path3929"
           d="m 894.6159,313.33166 -10.80454,2.1609 z"
           style="fill:none;stroke:#000000;stroke-width:1px;stroke-linecap:butt;stroke-linejoin:miter;stroke-opacity:1" />
        <path
           style="fill:none;stroke:#000000;stroke-width:1px;stroke-linecap:butt;stroke-linejoin:miter;stroke-opacity:1"
           d="M 88.597227,661.23784 z"
           id="path3931"
           inkscape:connector-curvature="0" />
        <path
           inkscape:connector-curvature="0"
           id="path3933"
           d="M 263.63077,749.83507 z"
           style="fill:none;stroke:#000000;stroke-width:1px;stroke-linecap:butt;stroke-linejoin:miter;stroke-opacity:1" />
        <path
           inkscape:connector-curvature="0"
           id="path3935"
           d="M 88.597227,661.23784 z"
           style="fill:none;stroke:#000000;stroke-width:1px;stroke-linecap:butt;stroke-linejoin:miter;stroke-opacity:1" />
        <path
           style="fill:none;stroke:#000000;stroke-width:1px;stroke-linecap:butt;stroke-linejoin:miter;stroke-opacity:1"
           d="M 263.63077,749.83507 z"
           id="path3937"
           inkscape:connector-curvature="0" />
        <path
           style="fill:none;stroke:#000000;stroke-width:1px;stroke-linecap:butt;stroke-linejoin:miter;stroke-opacity:1"
           d="m 894.6159,313.33166 -10.80454,2.1609 z"
           id="path3939"
           inkscape:connector-curvature="0" />
      </g>
      <g
         transform="matrix(0.72246453,0,0,0.69212334,121.29703,85.746827)"
         id="g3008">
        <path
           transform="translate(115.72594,141.70555)"
           sodipodi:open="true"
           sodipodi:end="6.2831268"
           sodipodi:start="0"
           d="m 597.14287,326.64789 c 0,190.93273 -154.78156,345.71429 -345.7143,345.71429 -190.932729,0 -345.714291,-154.78156 -345.714291,-345.71429 0,-190.93273 154.781562,-345.714296 345.714291,-345.714296 190.92484,0 345.70313,154.769236 345.7143,345.694066"
           sodipodi:ry="345.71429"
           sodipodi:rx="345.71429"
           sodipodi:cy="326.64789"
           sodipodi:cx="251.42857"
           id="path3271"
           style="opacity:0.5;fill:#999999;fill-opacity:1;fill-rule:nonzero;stroke:#2d2a41;stroke-width:5.70499992;stroke-linejoin:round;stroke-miterlimit:4;stroke-opacity:0;stroke-dasharray:none;stroke-dashoffset:0"
           sodipodi:type="arc" />
        <path
           sodipodi:nodetypes="cccccccccccccscccccccccccccccccc"
           inkscape:connector-curvature="0"
           id="path3281"
           d="m 191.8662,204.92258 c 50.72934,-33.00002 74.49426,-12.70988 26.18999,10.0204 47.64538,30.72853 -32.93716,34.73649 -61.60471,50.10201 2.17498,43.1888 20.39244,12.07246 31.38548,15.74634 l 66.4823,-60.1224 84.61382,-5.72595 c 21.99011,10.68809 17.71799,25.75322 17.8663,40.08161 -135.77262,-2.5987 -34.14179,-7.40389 -38.01245,4.29445 -45.57368,19.28431 -27.69473,22.70546 -14.1023,27.19824 15.78163,2.92337 38.51471,12.23641 28.4972,37.27334 -54.61207,19.23615 -44.08118,17.1064 -66.77489,21.41757 l -80.58459,0 c -7.06617,11.12972 -97.254488,-18.82751 -46.60955,27.11616 -11.30641,11.39412 9.14766,28.53997 17.11122,19.87893 31.29583,-34.03682 42.49025,14.8869 61.73217,13.12732 10.07622,11.60687 87.10243,14.03168 -26.18999,42.94457 28.06949,12.22641 70.43539,7.99996 64.52034,37.21864 -25.51845,26.77359 -41.01651,42.88322 -66.53496,42.94457 l -10.07308,27.19823 -44.32153,-5.72595 c -1.40762,-12.67725 21.12854,-31.34044 -7.47533,-37.21862 -8.25283,-18.7983 -16.50567,-2.68587 -24.7585,20.04079 L 79.047762,557.06809 68.974687,572.81444 44.799309,548.47918 c 23.61315,52.91991 7.389927,72.36493 -16.116919,4.29446 l -10.073074,-48.67052 0,-65.84835 c 7.483387,-28.34218 9.910346,-54.15615 24.175377,-85.88915 0.354988,-30.0612 21.510096,-60.1224 44.374201,-90.1836 l 59.907986,-60.12241 z"
           style="fill:#808080;stroke:none" />
        <path
           inkscape:connector-curvature="0"
           id="path3285"
           d="M 366.46037,267.90796 z"
           style="fill:none;stroke:#000000;stroke-width:1px;stroke-linecap:butt;stroke-linejoin:miter;stroke-opacity:1" />
        <path
           sodipodi:nodetypes="cccccc"
           inkscape:connector-curvature="0"
           id="path3287"
           d="m 361.09229,242.49909 c 18.00714,-10.25243 47.14956,-49.99262 51.53349,-1.43149 19.11491,0.68622 25.17557,-4.9384 50.102,35.78715 28.14258,28.53944 15.42534,48.8463 1.80328,54.60503 l -41.88488,21.26371 C 384.47202,329.48367 337.12883,305.9456 361.09229,242.49909 z"
           style="fill:#808080;stroke:#000000;stroke-width:1px;stroke-linecap:butt;stroke-linejoin:miter;stroke-opacity:0" />
        <path
           transform="matrix(0.68353839,0,0,0.74168908,-236.30258,-136.34694)"
           inkscape:transform-center-y="-9.3629366"
           inkscape:transform-center-x="0.5194296"
           d="m 957.42525,465.01859 30.82383,-32.85579 -34.47961,-24.22904 40.7728,19.1622 12.38843,-40.27925 -5.6249,44.69868 42.1361,-0.66489 -44.24915,8.4631 13.65315,39.86832 -21.72267,-39.4682 z"
           inkscape:randomized="0"
           inkscape:rounded="0"
           inkscape:flatsided="false"
           sodipodi:arg2="3.4062081"
           sodipodi:arg1="2.4493202"
           sodipodi:r2="6.8727717"
           sodipodi:r1="48.658737"
           sodipodi:cy="433.9603"
           sodipodi:cx="994.88263"
           sodipodi:sides="5"
           id="path3295"
           style="opacity:0.5;fill:#000000;fill-opacity:1;fill-rule:nonzero;stroke:#2d2a41;stroke-width:5.70499992;stroke-linejoin:round;stroke-miterlimit:4;stroke-opacity:0.03365383;stroke-dasharray:none;stroke-dashoffset:0"
           sodipodi:type="star" />
        <path
           sodipodi:nodetypes="cccccccccc"
           inkscape:connector-curvature="0"
           id="path3297"
           d="m 569.43689,279.08579 c -3.12993,-32.8091 11.51416,-25.62665 22.90378,-25.76675 l 14.31486,11.45189 12.88337,2.86297 c 1.93433,17.38644 11.37694,26.01323 18.60931,37.21863 l -15.74634,8.58892 c -0.97033,12.20574 -5.8654,22.05664 -25.76675,22.90377 -9.05436,-9.392 -7.28147,-26.00216 -37.21863,-21.47229 l 1.43149,-24.33525 z"
           style="fill:#808080;stroke:#000000;stroke-width:1px;stroke-linecap:butt;stroke-linejoin:miter;stroke-opacity:0" />
        <path
           transform="matrix(0.60825714,0,0,0.67815508,150.67357,54.262898)"
           d="m 415.34936,294.31989 c 0,6.23226 -8.03633,11.28451 -17.94964,11.28451 -9.91331,0 -17.94964,-5.05225 -17.94964,-11.28451 0,-6.23227 8.03633,-11.28452 17.94964,-11.28452 9.91331,0 17.94964,5.05225 17.94964,11.28452 z"
           sodipodi:ry="11.284515"
           sodipodi:rx="17.949638"
           sodipodi:cy="294.31989"
           sodipodi:cx="397.39972"
           id="path3311"
           style="opacity:0.5;fill:#000000;fill-opacity:1;fill-rule:nonzero;stroke:#2d2a41;stroke-width:5.70499992;stroke-linejoin:round;stroke-miterlimit:4;stroke-opacity:0.03365383;stroke-dasharray:none;stroke-dashoffset:0"
           sodipodi:type="arc" />
        <path
           transform="matrix(15.666667,0,0,1,-5784.1569,0)"
           sodipodi:open="true"
           sodipodi:end="5.556543"
           sodipodi:start="0"
           d="m 394.37433,282.22281 c 0,0.39529 -0.24034,0.71574 -0.53681,0.71574 -0.29647,0 -0.5368,-0.32045 -0.5368,-0.71574 0,-0.3953 0.24033,-0.71574 0.5368,-0.71574 0.15334,0 0.29935,0.0874 0.40122,0.24023"
           sodipodi:ry="0.71574289"
           sodipodi:rx="0.53680718"
           sodipodi:cy="282.22281"
           sodipodi:cx="393.83752"
           id="path3317"
           style="opacity:0.5;fill:#000000;fill-opacity:1;fill-rule:nonzero;stroke:none"
           sodipodi:type="arc" />
        <path
           sodipodi:open="true"
           sodipodi:end="0.027692687"
           sodipodi:start="0"
           d="m 585.83556,268.98157 c 0,0.0793 -0.001,0.15856 -0.003,0.23782"
           sodipodi:ry="8.5889149"
           sodipodi:rx="8.5889149"
           sodipodi:cy="268.98157"
           sodipodi:cx="577.24664"
           id="path4089"
           style="opacity:0.5;fill:#000000;fill-opacity:1;fill-rule:nonzero;stroke:#000000;stroke-width:5.70499992;stroke-linejoin:round;stroke-miterlimit:4;stroke-opacity:0;stroke-dasharray:none;stroke-dashoffset:0"
           sodipodi:type="arc" />
        <path
           sodipodi:nodetypes="ccccc"
           inkscape:connector-curvature="0"
           id="path4091"
           d="m 576.17304,277.03368 c 6.11705,14.5855 5.13118,12.12396 6.97849,16.46209 3.90794,3.30263 5.15069,3.09858 4.29446,-4.11552 -1.24032,-3.28382 0.98803,0.94781 -5.36807,-13.42019 -2.61878,0.71155 -5.34748,-8.8418 -5.90488,1.07362 z"
           style="fill:#000000;fill-opacity:0.39215686;stroke:#000000;stroke-width:1px;stroke-linecap:butt;stroke-linejoin:miter;stroke-opacity:0" />
        <path
           sodipodi:nodetypes="cccccccc"
           inkscape:connector-curvature="0"
           id="path4105"
           d="m 647.03159,329.64079 c -0.47053,-0.42526 -3.51289,4.47612 -6.79956,7.33636 l 2.68403,3.93658 c 2.15103,0.61859 5.7622,4.25252 8.76786,6.08382 1.22341,-2.27752 8.43168,-1.96712 2.50509,-7.33636 l 2.5051,-0.89468 c 3.76505,-1.43149 4.02271,-2.86297 3.04191,-4.29446 -3.35111,-5.19682 -8.47346,-3.57823 -12.70443,-4.83126 z"
           style="fill:#000000;fill-opacity:0.39215686;stroke:#000000;stroke-width:1px;stroke-linecap:butt;stroke-linejoin:miter;stroke-opacity:0" />
        <path
           sodipodi:nodetypes="cccccccc"
           inkscape:connector-curvature="0"
           id="path4107"
           d="m 319.89139,263.45543 c 34.1802,0.79404 17.17086,-3.01314 25.75628,-4.51971 l 4.50284,8.31627 c -9.10771,6.31857 -7.66439,-0.12779 -10.08636,26.03353 l -3.96251,0 -3.9625,-16.27097 c -10.45339,-1.60055 -15.64141,-5.5537 -15.66991,-9.76256 2.22741,-5.62851 2.28144,-2.53103 3.42216,-3.79656 z"
           style="fill:#999999;fill-opacity:0.47058824;stroke:#000000;stroke-width:1.88954604px;stroke-linecap:butt;stroke-linejoin:miter;stroke-opacity:0" />
        <path
           sodipodi:nodetypes="ccsccccsccccccccccccccscccccccccccccccccc"
           inkscape:connector-curvature="0"
           id="path4111"
           d="m 362.44565,341.33118 c 0.93167,-5.33768 5.74802,-10.1204 -2.02443,-16.70152 5.27705,-1.46816 6.88415,-14.85151 11.03537,-5.44103 0.60945,1.38158 -0.36458,6.70993 0.099,8.98377 4.05181,-17.79523 9.27858,-2.11584 16.70152,3.03664 l 0,20.24427 c 9.1095,-0.84367 -4.31802,-5.25543 23.28091,1.01222 0,0 -3.03664,2.02442 1.01221,6.57938 4.04886,4.55496 8.09771,11.13435 8.09771,11.13435 l -1.01222,27.32976 -18.21984,6.57938 -22.7748,-21.25648 -17.71373,-14.17098 -7.08549,-3.03664 -11.13435,1.51832 -5.56717,9.61602 4.55496,2.02443 9.10992,6.07328 15.1832,8.60381 6.07328,12.65267 -3.54275,9.61603 -10.12213,9.10992 c 0,0 -9.61603,3.54274 -12.65267,0 -3.03664,-3.54275 -11.64045,-12.65267 -11.64045,-12.65267 l -4.55496,-6.57939 -3.54275,-8.09771 -14.17099,-5.06106 -4.04885,-4.55496 -7.5916,-15.68931 7.08549,-7.08549 10.12214,-3.54275 4.04885,6.07328 3.03664,-1.01221 1.01221,-4.04885 -3.03664,-8.60382 1.01222,-10.62824 13.66488,-6.57938 3.03664,5.06106 3.54274,2.53054 6.07328,2.02442 c -3.03664,3.03664 12.65267,-5.06106 12.65267,-5.06106 z"
           style="fill:#666666;fill-opacity:0.47058824;stroke:#000000;stroke-width:1px;stroke-linecap:butt;stroke-linejoin:miter;stroke-opacity:0" />
        <path
           transform="matrix(0.60509059,0,0,0.58821159,105.34542,131.61594)"
           inkscape:transform-center-y="-0.37051659"
           inkscape:transform-center-x="-3.1570236"
           d="m 515.72266,423.27159 43.52561,-37.67008 -45.92192,-33.93546 49.27653,29.75462 18.08389,-54.16098 -13.07104,56.05945 57.09838,0.46214 -57.35488,4.89203 17.20485,54.44659 -22.37622,-53.03601 z"
           inkscape:randomized="0"
           inkscape:rounded="0"
           inkscape:flatsided="false"
           sodipodi:arg2="-3.0937229"
           sodipodi:arg1="2.4798212"
           sodipodi:r2="4.5597491"
           sodipodi:r1="60.945415"
           sodipodi:cy="385.8197"
           sodipodi:cx="563.8028"
           sodipodi:sides="5"
           id="path4113"
           style="opacity:0.5;fill:#000000;fill-opacity:0.95192309;fill-rule:nonzero;stroke:#000000;stroke-width:5.70499992;stroke-linejoin:round;stroke-miterlimit:4;stroke-opacity:0;stroke-dasharray:none;stroke-dashoffset:0"
           sodipodi:type="star" />
        <path
           sodipodi:open="true"
           sodipodi:end="6.2831268"
           sodipodi:start="0"
           d="m 62.985377,476.18915 c 0,5.92941 -3.524939,10.73614 -7.873171,10.73614 -4.348233,0 -7.873172,-4.80673 -7.873172,-10.73614 0,-5.92941 3.524939,-10.73615 7.873172,-10.73615 4.348052,0 7.872917,4.80636 7.873171,10.73552"
           sodipodi:ry="10.736143"
           sodipodi:rx="7.8731718"
           sodipodi:cy="476.18915"
           sodipodi:cx="55.112206"
           id="path4133"
           style="opacity:0.5;fill:#000000;fill-opacity:0.95192309;fill-rule:nonzero;stroke:#000000;stroke-width:5.70499992;stroke-linejoin:round;stroke-miterlimit:4;stroke-opacity:0;stroke-dasharray:none;stroke-dashoffset:0"
           sodipodi:type="arc"
           transform="matrix(18.459887,0,0,1,-824.7882,0)" />
        <path
           transform="matrix(0.81015911,0,0,0.97471903,-0.20912671,-10.825843)"
           sodipodi:open="true"
           sodipodi:end="6.2831268"
           sodipodi:start="0"
           d="m 110.22441,323.7359 c 0,8.69647 -7.69078,15.74634 -17.177833,15.74634 -9.487053,0 -17.177829,-7.04987 -17.177829,-15.74634 0,-8.69646 7.690776,-15.74634 17.177829,-15.74634 9.486663,0 17.177273,7.04931 17.177833,15.74542"
           sodipodi:ry="15.746344"
           sodipodi:rx="17.17783"
           sodipodi:cy="323.7359"
           sodipodi:cx="93.046577"
           id="path4135"
           style="opacity:0.5;fill:#000000;fill-opacity:0.95192309;fill-rule:nonzero;stroke:#000000;stroke-width:5.70499992;stroke-linejoin:round;stroke-miterlimit:4;stroke-opacity:0;stroke-dasharray:none;stroke-dashoffset:0"
           sodipodi:type="arc" />
        <path
           inkscape:connector-curvature="0"
           id="path4143"
           d="m 116.99917,320.99151 4.79521,-30.5017 -0.39961,32.84799 16.78327,-3.91047 -15.18486,10.94933 13.98603,3.91047 -13.18683,3.12838 -1.59839,28.15543 -7.19283,-29.71962 -12.38764,3.91048 7.59244,-11.73143 -13.186863,-8.60304 z"
           style="fill:#ffffff;fill-opacity:0.95192309;stroke:#000000;stroke-width:0.39053148px;stroke-linecap:butt;stroke-linejoin:miter;stroke-opacity:0" />
        <path
           inkscape:transform-center-y="-20.716276"
           inkscape:transform-center-x="44.699054"
           style="fill:#ffffff;fill-opacity:0.95192309;stroke:#000000;stroke-width:0.20447959px;stroke-linecap:butt;stroke-linejoin:miter;stroke-opacity:0"
           d="m 219.67379,273.70754 4.0334,-14.11016 -1.57445,15.38565 9.91456,-1.16392 -9.27315,4.52803 7.96918,2.39153 -7.79228,0.9407 -2.07946,13.1376 -2.96626,-14.22176 -7.35973,1.3393 4.89223,-5.19766 -7.31295,-4.55986 z"
           id="path4145"
           inkscape:connector-curvature="0" />
        <path
           transform="matrix(1.4113344,0,0,1,-139.74386,-32.924174)"
           sodipodi:open="true"
           sodipodi:end="6.2831268"
           sodipodi:start="0"
           d="m 304.90649,306.55807 c 0,7.90588 -5.44763,14.31486 -12.16763,14.31486 -6.71999,0 -12.16763,-6.40898 -12.16763,-14.31486 0,-7.90587 5.44764,-14.31485 12.16763,-14.31485 6.71972,0 12.16724,6.40847 12.16763,14.31402"
           sodipodi:ry="14.314858"
           sodipodi:rx="12.167629"
           sodipodi:cy="306.55807"
           sodipodi:cx="292.73886"
           id="path4147"
           style="opacity:0.5;fill:#000000;fill-opacity:0.95192309;fill-rule:nonzero;stroke:#000000;stroke-width:5.70499992;stroke-linejoin:round;stroke-miterlimit:4;stroke-opacity:0;stroke-dasharray:none;stroke-dashoffset:0"
           sodipodi:type="arc" />
        <path
           sodipodi:nodetypes="cccccccccccccccccccc"
           transform="translate(-28.629716,11.451886)"
           inkscape:connector-curvature="0"
           id="path4151"
           d="m 273.41379,486.92529 1.43149,37.21863 -14.31486,25.76674 -17.17783,24.33526 18.60931,30.0612 c 10.0204,-0.2775 20.0408,-25.8908 30.0612,4.29446 l 15.74635,-5.72594 c 17.46676,15.24793 27.73118,14.03337 18.60931,-31.49269 l 17.17783,-8.58891 21.47229,0 22.90377,-20.04081 -8.58891,-31.49269 -15.74634,-5.72594 -15.74635,-30.0612 -8.58891,-11.45188 -8.58892,1.43148 -15.74634,7.15743 2.86297,10.0204 2.86297,14.31486 7.15743,4.29446"
           style="fill:#626059;fill-opacity:0.95192309;stroke:#000000;stroke-width:1px;stroke-linecap:butt;stroke-linejoin:miter;stroke-opacity:0" />
        <path
           inkscape:connector-curvature="0"
           id="path4165"
           d="m 459.50694,502.67163 -7.15742,-1.43148"
           style="fill:none;stroke:#000000;stroke-width:1px;stroke-linecap:butt;stroke-linejoin:miter;stroke-opacity:1" />
        <path
           inkscape:connector-curvature="0"
           id="path4167"
           d="M 367.89185,489.78826 z"
           style="fill:none;stroke:#000000;stroke-width:1px;stroke-linecap:butt;stroke-linejoin:miter;stroke-opacity:1" />
        <path
           inkscape:connector-curvature="0"
           id="path4171"
           d="m 466.66438,392.44723 30.0612,-40.08161 8.58891,12.88338 15.74635,-1.43149 8.58891,-7.15743 4.29446,-17.17783 7.15743,-14.31486 12.88337,-7.15743 14.31486,25.76675 0,14.31486 7.15743,12.88337 15.74634,1.43149 21.47229,0 7.15743,11.45188 -12.88338,7.15743 -2.86297,8.58892 20.0408,14.31485 1.43149,35.78715 -17.17783,12.88337 -34.35566,-12.88337 -27.19823,70.1428 -50.102,10.0204 -22.90378,-20.0408 32.92418,-20.0408 -20.0408,-17.17783 -31.49269,-4.29446 -8.58892,-15.74634 -22.90377,-32.92417 z"
           style="fill:#626059;fill-opacity:0.95192309;stroke:#000000;stroke-width:1px;stroke-linecap:butt;stroke-linejoin:miter;stroke-opacity:0" />
        <path
           sodipodi:open="true"
           sodipodi:end="6.2831268"
           sodipodi:start="0"
           d="m 558.27947,398.88892 c 0,8.30117 -6.08853,15.0306 -13.59911,15.0306 -7.51059,0 -13.59912,-6.72943 -13.59912,-15.0306 0,-8.30118 6.08853,-15.0306 13.59912,-15.0306 7.51027,0 13.59867,6.72889 13.59911,15.02972"
           sodipodi:ry="15.030601"
           sodipodi:rx="13.599115"
           sodipodi:cy="398.88892"
           sodipodi:cx="544.68036"
           id="path4173"
           style="opacity:0.5;fill:#000000;fill-opacity:1;fill-rule:nonzero;stroke:#000000;stroke-width:5.70499992;stroke-linejoin:round;stroke-miterlimit:4;stroke-opacity:0;stroke-dasharray:none;stroke-dashoffset:0"
           sodipodi:type="arc"
           transform="translate(612.3092,-248.55892)" />
        <path
           sodipodi:nodetypes="cccccccccccccccccccccc"
           inkscape:connector-curvature="0"
           id="path3006"
           d="m 918.64716,710.5158 -62.98537,-267.68785 70.14281,230.46922 15.74634,-226.17476 7.15743,217.58584 71.57433,-254.80447 -47.23908,240.48962 184.66168,-196.11356 -158.89493,191.8191 140.28563,-70.14281 -128.8337,80.16321 279.1397,-125.97075 -214.7229,127.40223 146.0116,-28.62971 -183.2302,47.23903 -15.7464,25.76674 -17.1778,11.45189 -68.71131,1.43149 -2.86297,-21.47229 10.0204,-14.31486 -11.45189,34.35566 z"
           style="fill:#ffffff;fill-opacity:1;stroke:#000000;stroke-width:1px;stroke-linecap:butt;stroke-linejoin:miter;stroke-opacity:0" />
        <path
           transform="matrix(1.354643,0,0,1.3714428,-120.60016,-343.64905)"
           sodipodi:open="true"
           sodipodi:end="6.2831268"
           sodipodi:start="0"
           d="m 399.38454,797.55768 c 0,25.29881 -20.50874,45.80754 -45.80754,45.80754 -25.29881,0 -45.80755,-20.50873 -45.80755,-45.80754 0,-25.29881 20.50874,-45.80755 45.80755,-45.80755 25.29776,0 45.80606,20.50711 45.80754,45.80487"
           sodipodi:ry="45.807545"
           sodipodi:rx="45.807545"
           sodipodi:cy="797.55768"
           sodipodi:cx="353.577"
           id="path3776"
           style="opacity:0.5;fill:#fdfdfd;fill-opacity:1;fill-rule:nonzero;stroke:#000000;stroke-width:5.70499992;stroke-linejoin:round;stroke-miterlimit:4;stroke-opacity:0;stroke-dasharray:none;stroke-dashoffset:0"
           sodipodi:type="arc" />
      </g>
    </g>
    <path
       style="fill:none;stroke:#000000;stroke-width:1px;stroke-linecap:butt;stroke-linejoin:miter;stroke-opacity:1"
       d=""
       id="path3119"
       inkscape:path-effect="#path-effect3121"
       inkscape:original-d="M 955.60431,546.27576 z"
       inkscape:connector-curvature="0" />
  </g>
</svg>
