<svg id="ekRgr7cC10U1" xmlns="http://www.w3.org/2000/svg" xmlns:xlink="http://www.w3.org/1999/xlink" viewBox="0 0 640 480" shape-rendering="geometricPrecision" text-rendering="geometricPrecision"><ellipse id="ekRgr7cC10U2" rx="198.240418" ry="198.099826" transform="matrix(1.008876 0 0 1.009592 336.423934 255.202666)" fill="rgb(255,255,255)" stroke="none" stroke-width="0"/><ellipse id="ekRgr7cC10U3" rx="32.005615" ry="29.478856" transform="matrix(1 0 0 1 256.409896 181.926654)" fill="rgb(237,239,244)" fill-opacity="0.3" stroke="none" stroke-width="0"/><ellipse id="ekRgr7cC10U4" rx="77.487279" ry="53.483068" transform="matrix(0.979166 0 0 1.279072 386.116863 346.587121)" fill="rgb(237,239,244)" fill-opacity="0.3" stroke="none" stroke-width="0"/><ellipse id="ekRgr7cC10U5" rx="24.846464" ry="16.002808" transform="matrix(1 0 0 1 420.22811 148.236533)" fill="rgb(237,239,244)" fill-opacity="0.3" stroke="none" stroke-width="0"/><ellipse id="ekRgr7cC10U6" rx="13.054922" ry="11.791542" transform="matrix(1 0 0 1 218.929637 289.969968)" fill="rgb(237,239,244)" fill-opacity="0.3" stroke="none" stroke-width="0"/><ellipse id="ekRgr7cC10U7" rx="20.86022" ry="14.739428" transform="matrix(1 0 0 1 350.096088 240.463239)" fill="rgb(237,239,244)" fill-opacity="0.3" stroke="none" stroke-width="0"/><ellipse id="ekRgr7cC10U8" rx="8.211967" ry="6.316897" transform="matrix(1 0 0 1 328.211967 100.649237)" fill="rgb(237,239,244)" fill-opacity="0.3" stroke="none" stroke-width="0"/><ellipse id="ekRgr7cC10U9" rx="3.369012" ry="3.158449" transform="matrix(1 0 0 1 481.291454 237.30479)" fill="rgb(237,239,244)" fill-opacity="0.3" stroke="none" stroke-width="0"/><ellipse id="ekRgr7cC10U10" rx="6.738024" ry="5.474644" transform="matrix(1 0 0 1 179.764871 211.826637)" fill="rgb(237,239,244)" fill-opacity="0.3" stroke="none" stroke-width="0"/><ellipse id="ekRgr7cC10U11" rx="3.790138" ry="9.475347" transform="matrix(2.53846 0 0 1 252.619758 110.124584)" fill="rgb(237,239,244)" fill-opacity="0.3" stroke="none" stroke-width="0"/><ellipse id="ekRgr7cC10U12" rx="5.895772" ry="5.053519" transform="matrix(1 0 0 1 242.933849 363.853308)" fill="rgb(237,239,244)" fill-opacity="0.3" stroke="none" stroke-width="0"/></svg>