<svg id="e8PX56sYR7C1" xmlns="http://www.w3.org/2000/svg" xmlns:xlink="http://www.w3.org/1999/xlink" viewBox="0 0 640 480" shape-rendering="geometricPrecision" text-rendering="geometricPrecision"><ellipse id="e8PX56sYR7C2" rx="200" ry="200" transform="matrix(1 0 0 1 304.153354 258.713924)" fill="rgb(255,255,255)" stroke="none" stroke-width="0"/><ellipse id="e8PX56sYR7C3" rx="42.126583" ry="46.177215" transform="matrix(1 0 0 1 233.316456 212.536709)" opacity="0.5" fill="rgb(210,219,237)" stroke="none" stroke-width="0"/><ellipse id="e8PX56sYR7C4" rx="42.936709" ry="15.392405" transform="matrix(0.953976 0.299884 -0.299884 0.953976 358.103048 135.467427)" opacity="0.5" fill="rgb(210,219,237)" stroke="none" stroke-width="0"/><ellipse id="e8PX56sYR7C5" rx="19.443038" ry="23.088607" transform="matrix(0.985514 -0.169595 0.169595 0.985514 421.659378 222.535755)" opacity="0.5" fill="rgb(210,219,237)" stroke="none" stroke-width="0"/><ellipse id="e8PX56sYR7C6" rx="14.582279" ry="10.531645" transform="matrix(0.857882 -0.513847 0.513847 0.857882 367.797469 329.194937)" opacity="0.5" fill="rgb(210,219,237)" stroke="none" stroke-width="0"/><ellipse id="e8PX56sYR7C7" rx="34.835443" ry="25.113924" transform="matrix(0.992568 -0.121687 0.121687 0.992568 315.582581 394.006827)" opacity="0.5" fill="rgb(210,219,237)" stroke="none" stroke-width="0"/><ellipse id="e8PX56sYR7C8" rx="17.822785" ry="36.050632" transform="matrix(0.803832 -0.361435 0.267928 0.595871 167.204381 293.778559)" opacity="0.5" fill="rgb(210,219,237)" stroke="none" stroke-width="0"/><ellipse id="e8PX56sYR7C9" rx="16.202532" ry="15.392405" transform="matrix(0.985222 -0.171285 0.171285 0.985222 414.78481 344.587342)" opacity="0.5" fill="rgb(210,219,237)" stroke="none" stroke-width="0"/><ellipse id="e8PX56sYR7C10" rx="10.764842" ry="7.101476" transform="matrix(0.463032 -0.036579 0.055449 0.701892 336.763872 249.546989)" opacity="0.5" fill="rgb(210,219,237)" stroke="none" stroke-width="0"/><ellipse id="e8PX56sYR7C11" rx="8.101266" ry="6.05" transform="matrix(0.969639 -0.24454 0.24454 0.969639 254.868672 105.918412)" opacity="0.5" fill="rgb(210,219,237)" stroke="none" stroke-width="0"/></svg>